<?xml version="1.0" encoding="UTF-8" standalone="no"?><!DOCTYPE svg PUBLIC "-//W3C//DTD SVG 1.1//EN" "http://www.w3.org/Graphics/SVG/1.1/DTD/svg11.dtd"><svg width="100%" height="100%" viewBox="0 0 2352 716" version="1.1" xmlns="http://www.w3.org/2000/svg" xmlns:xlink="http://www.w3.org/1999/xlink" xml:space="preserve" xmlns:serif="http://www.serif.com/" style="fill-rule:evenodd;clip-rule:evenodd;stroke-linecap:round;"><rect id="アートボード1" x="0" y="0" width="2351.706" height="715.263" style="fill:none;"/><clipPath id="_clip1"><rect x="0" y="0" width="2351.706" height="715.263"/></clipPath><g clip-path="url(#_clip1)"><path d="M2351.706,179.104l0,357.44c0,98.638 -80.082,178.72 -178.72,178.72l-1994.266,0c-98.638,0 -178.72,-80.082 -178.72,-178.72l-0,-357.44c0,-98.638 80.082,-178.72 178.72,-178.72l1994.266,-0c98.638,0 178.72,80.082 178.72,178.72Z" style="fill-opacity:0.35;"/><path d="M670.768,223.904l0,268.224c0,98.691 -80.125,178.816 -178.816,178.816l-268.224,0c-98.691,0 -178.816,-80.125 -178.816,-178.816l0,-268.224c0,-98.691 80.125,-178.816 178.816,-178.816l268.224,0c98.691,0 178.816,80.125 178.816,178.816Z" style="fill:#6366f1;"/><path d="M223.728,469.776c89.408,74.507 178.816,74.507 268.224,0" style="fill:none;fill-rule:nonzero;stroke:#fff;stroke-width:44.7px;"/><circle cx="246.08" cy="290.96" r="67.056" style="fill:#fff;"/><circle cx="469.6" cy="290.96" r="67.056" style="fill:#fff;"/><g transform="matrix(5.382667,0,0,5.382667,-3698.834333,-3316.279981)"><text x="818.778px" y="658.903px" style="font-family:'Bauhaus93', 'Bauhaus 93', fantasy;font-size:50px;fill:#fff;fill-opacity:0.95;">Created with</text><g transform="matrix(50,0,0,50,1024.320178,696.874201)"></g><text x="906.547px" y="696.874px" style="font-family:'Bauhaus93', 'Bauhaus 93', fantasy;font-size:50px;fill:#fff;fill-opacity:0.95;">EDBB</text></g><g transform="matrix(2.940301,0,0,2.940301,-1706.15799,-1381.115122)"><text x="818.778px" y="658.903px" style="font-family:'Bauhaus93', 'Bauhaus 93', fantasy;font-size:50px;fill-opacity:0.95;">Easy Discord Bot Builder</text><rect x="818.778" y="664.054" width="24.097" height="5.225" style="fill-opacity:0.95;"/><rect x="929.813" y="664.054" width="36.597" height="5.225" style="fill-opacity:0.95;"/><rect x="1112.528" y="664.054" width="28.54" height="5.225" style="fill-opacity:0.95;"/><rect x="1198.222" y="664.054" width="28.54" height="5.225" style="fill-opacity:0.95;"/></g><g><g transform="matrix(73.874987,0,0,73.874987,2283.163587,653.174004)"></g><text x="1457.373px" y="653.174px" style="font-family:'Bauhaus93', 'Bauhaus 93', fantasy;font-size:73.875px;fill-opacity:0.95;">https://himais0giiiin.com</text><g transform="matrix(73.874987,0,0,73.874987,1688.576051,653.18975)"></g><text x="1637.354px" y="653.19px" style="font-family:'Bauhaus93', 'Bauhaus 93', fantasy;font-size:73.875px;fill-opacity:0.95;">//</text></g></g></svg>